Coda.ufo
<glyph name="numbersign" format="1">
  <advance width="1418"/>
  <unicode hex="0023"/>
  <outline>
    <contour>
      <point x="1275" y="406" type="line"/>
      <point x="996" y="406" type="line"/>
      <point x="926" y="0" type="line"/>
      <point x="750" y="0" type="line"/>
      <point x="820" y="406" type="line"/>
      <point x="492" y="406" type="line"/>
      <point x="420" y="0" type="line"/>
      <point x="243" y="0" type="line"/>
      <point x="312" y="406" type="line"/>
      <point x="37" y="406" type="line"/>
      <point x="64" y="561" type="line"/>
      <point x="338" y="561" type="line"/>
      <point x="405" y="963" type="line"/>
      <point x="135" y="963" type="line"/>
      <point x="162" y="1131" type="line"/>
      <point x="434" y="1131" type="line"/>
      <point x="498" y="1490" type="line"/>
      <point x="680" y="1490" type="line"/>
      <point x="617" y="1131" type="line"/>
      <point x="939" y="1131" type="line"/>
      <point x="1001" y="1490" type="line"/>
      <point x="1177" y="1490" type="line"/>
      <point x="1116" y="1131" type="line"/>
      <point x="1389" y="1131" type="line"/>
      <point x="1366" y="963" type="line"/>
      <point x="1088" y="963" type="line"/>
      <point x="1021" y="561" type="line"/>
      <point x="1298" y="561" type="line"/>
    </contour>
    <contour>
      <point x="844" y="561" type="line"/>
      <point x="912" y="963" type="line"/>
      <point x="588" y="963" type="line"/>
      <point x="519" y="561" type="line"/>
    </contour>
  </outline>
</glyph>
<glyph name="dollar" format="1">
  <advance width="1176"/>
  <unicode hex="0024"/>
  <outline>
    <contour>
      <point x="608" y="-176" type="line"/>
      <point x="608" y="1641" type="line"/>
      <point x="702" y="1641" type="line"/>
      <point x="702" y="-176" type="line"/>
    </contour>
    <contour>
      <point x="1156" y="437" type="curve" smooth="yes"/>
      <point x="1156" y="6"/>
      <point x="1012" y="-24"/>
      <point x="637" y="-24" type="curve" smooth="yes"/>
      <point x="169" y="-24"/>
      <point x="144" y="69"/>
      <point x="131" y="380" type="curve"/>
      <point x="316" y="410" type="line"/>
      <point x="341" y="190"/>
      <point x="308" y="140"/>
      <point x="641" y="140" type="curve" smooth="yes"/>
      <point x="928" y="140"/>
      <point x="955" y="168"/>
      <point x="955" y="281" type="curve" smooth="yes"/>
      <point x="955" y="544"/>
      <point x="960" y="632"/>
      <point x="883" y="646" type="curve" smooth="yes"/>
      <point x="385" y="733" type="line" smooth="yes"/>
      <point x="211" y="763"/>
      <point x="154" y="853"/>
      <point x="150" y="1081" type="curve"/>
      <point x="150" y="1442"/>
      <point x="259" y="1513"/>
      <point x="631" y="1513" type="curve" smooth="yes"/>
      <point x="981" y="1513"/>
      <point x="1120" y="1469"/>
      <point x="1120" y="1170" type="curve"/>
      <point x="942" y="1129" type="line"/>
      <point x="926" y="1309"/>
      <point x="948" y="1344"/>
      <point x="663" y="1344" type="curve" smooth="yes"/>
      <point x="376" y="1344"/>
      <point x="344" y="1306"/>
      <point x="344" y="1199" type="curve" smooth="yes"/>
      <point x="344" y="1026" type="line" smooth="yes"/>
      <point x="344" y="974"/>
      <point x="361" y="931"/>
      <point x="426" y="918" type="curve"/>
      <point x="784" y="857" type="line"/>
      <point x="1037" y="807"/>
      <point x="1156" y="783"/>
    </contour>
  </outline>
</glyph>
<glyph name="parenleft" format="1">
  <advance width="653"/>
  <unicode hex="0028"/>
  <outline>
    <contour>
      <point x="119" y="727" type="curve" smooth="yes"/>
      <point x="119" y="729" type="line" smooth="yes"/>
      <point x="119" y="1239"/>
      <point x="252" y="1651"/>
      <point x="651" y="1685" type="curve"/>
      <point x="666" y="1548" type="line"/>
      <point x="398" y="1507"/>
      <point x="310" y="1195"/>
      <point x="310" y="728" type="curve" smooth="yes"/>
      <point x="310" y="261"/>
      <point x="398" y="-51"/>
      <point x="666" y="-92" type="curve"/>
      <point x="651" y="-229" type="line"/>
      <point x="252" y="-195"/>
      <point x="119" y="217"/>
    </contour>
  </outline>
</glyph>
<glyph name="plus" format="1">
  <advance width="889"/>
  <unicode hex="002B"/>
  <outline>
    <contour>
      <point x="58" y="585" type="line"/>
      <point x="58" y="754" type="line"/>
      <point x="365" y="754" type="line"/>
      <point x="365" y="1117" type="line"/>
      <point x="531" y="1117" type="line"/>
      <point x="531" y="754" type="line"/>
      <point x="839" y="754" type="line"/>
      <point x="839" y="585" type="line"/>
      <point x="531" y="585" type="line"/>
      <point x="531" y="223" type="line"/>
      <point x="365" y="223" type="line"/>
      <point x="365" y="585" type="line"/>
    </contour>
  </outline>
</glyph>
<glyph name="slash" format="1">
  <advance width="629"/>
  <unicode hex="002F"/>
  <outline>
    <contour>
      <point x="581" y="1516" type="line"/>
      <point x="215" y="-26" type="line"/>
      <point x="36" y="-26" type="line"/>
      <point x="403" y="1516" type="line"/>
    </contour>
  </outline>
</glyph>
<glyph name="seven" format="1">
  <advance width="847"/>
  <unicode hex="0037"/>
  <outline>
    <contour>
      <point x="777" y="1482" type="line"/>
      <point x="777" y="1312" type="line"/>
      <point x="615" y="893"/>
      <point x="455" y="457"/>
      <point x="330" y="0" type="curve"/>
      <point x="146" y="0" type="line"/>
      <point x="280" y="455"/>
      <point x="437" y="897"/>
      <point x="608" y="1330" type="curve"/>
      <point x="33" y="1330" type="line"/>
      <point x="33" y="1482" type="line"/>
    </contour>
  </outline>
</glyph>
<glyph name="colon" format="1">
  <advance width="537"/>
  <unicode hex="003A"/>
  <outline>
    <contour>
      <point x="413" y="288" type="curve" smooth="yes"/>
      <point x="413" y="187"/>
      <point x="342" y="136"/>
      <point x="272" y="136" type="curve" smooth="yes"/>
      <point x="202" y="136"/>
      <point x="133" y="186"/>
      <point x="133" y="288" type="curve" smooth="yes"/>
      <point x="133" y="391"/>
      <point x="202" y="441"/>
      <point x="271" y="441" type="curve" smooth="yes"/>
      <point x="342" y="441"/>
      <point x="413" y="389"/>
    </contour>
    <contour>
      <point x="133" y="1079" type="curve" smooth="yes"/>
      <point x="133" y="1182"/>
      <point x="202" y="1232"/>
      <point x="272" y="1232" type="curve" smooth="yes"/>
      <point x="342" y="1232"/>
      <point x="413" y="1180"/>
      <point x="413" y="1079" type="curve" smooth="yes"/>
      <point x="413" y="976"/>
      <point x="344" y="925"/>
      <point x="274" y="925" type="curve" smooth="yes"/>
      <point x="204" y="925"/>
      <point x="133" y="977"/>
    </contour>
  </outline>
</glyph>
<glyph name="less" format="1">
  <advance width="874"/>
  <unicode hex="003C"/>
  <outline>
    <contour>
      <point x="761" y="234" type="line"/>
      <point x="65" y="667" type="line"/>
      <point x="65" y="832" type="line"/>
      <point x="761" y="1281" type="line"/>
      <point x="761" y="1045" type="line"/>
      <point x="242" y="758" type="line"/>
      <point x="761" y="462" type="line"/>
    </contour>
  </outline>
</glyph>
<glyph name="A" format="1">
  <advance width="1268"/>
  <unicode hex="0041"/>
  <outline>
    <contour>
      <point x="1221" y="0" type="line"/>
      <point x="1015" y="0" type="line"/>
      <point x="902" y="381" type="line"/>
      <point x="351" y="381" type="line"/>
      <point x="242" y="0" type="line"/>
      <point x="47" y="0" type="line"/>
      <point x="504" y="1490" type="line"/>
      <point x="775" y="1490" type="line"/>
    </contour>
    <contour>
      <point x="860" y="525" type="line"/>
      <point x="734" y="972" type="line"/>
      <point x="630" y="1338" type="line"/>
      <point x="599" y="1227"/>
      <point x="563" y="1100"/>
      <point x="528" y="982" type="curve" smooth="yes"/>
      <point x="394" y="525" type="line"/>
    </contour>
    <contour>
      <point x="634" y="1490" type="move" name="top"/>
    </contour>
    <contour>
      <point x="1141" y="10" type="move" name="ogonek"/>
    </contour>
  </outline>
</glyph>
<glyph name="H" format="1">
  <advance width="1404"/>
  <unicode hex="0048"/>
  <outline>
    <contour>
      <point x="1238" y="0" type="line"/>
      <point x="1035" y="0" type="line"/>
      <point x="1035" y="684" type="line"/>
      <point x="369" y="684" type="line"/>
      <point x="369" y="0" type="line"/>
      <point x="166" y="0" type="line"/>
      <point x="166" y="1490" type="line"/>
      <point x="369" y="1490" type="line"/>
      <point x="369" y="842" type="line"/>
      <point x="1035" y="842" type="line"/>
      <point x="1035" y="1490" type="line"/>
      <point x="1238" y="1490" type="line"/>
    </contour>
    <contour>
      <point x="702" y="1490" type="move" name="top"/>
    </contour>
    <contour>
      <point x="702" y="745" type="move" name="center"/>
    </contour>
  </outline>
</glyph>
<glyph name="K" format="1">
  <advance width="1229"/>
  <unicode hex="004B"/>
  <outline>
    <contour>
      <point x="1228" y="0" type="line"/>
      <point x="983" y="0" type="line"/>
      <point x="446" y="732" type="line"/>
      <point x="368" y="639" type="line"/>
      <point x="368" y="0" type="line"/>
      <point x="166" y="0" type="line"/>
      <point x="166" y="1490" type="line"/>
      <point x="368" y="1490" type="line"/>
      <point x="368" y="983" type="line" smooth="yes"/>
      <point x="368" y="926"/>
      <point x="367" y="856"/>
      <point x="367" y="802" type="curve"/>
      <point x="400" y="846"/>
      <point x="445" y="902"/>
      <point x="482" y="949" type="curve" smooth="yes"/>
      <point x="921" y="1490" type="line"/>
      <point x="1162" y="1490" type="line"/>
      <point x="604" y="829" type="line"/>
    </contour>
    <contour>
      <point x="615" y="1490" type="move" name="top"/>
    </contour>
    <contour>
      <point x="615" y="0" type="move" name="bottom"/>
    </contour>
  </outline>
</glyph>
<glyph name="O" format="1">
  <advance width="1420"/>
  <unicode hex="004F"/>
  <outline>
    <contour>
      <point x="710" y="-24" type="curve" smooth="yes"/>
      <point x="140" y="-24"/>
      <point x="132" y="139"/>
      <point x="132" y="812" type="curve" smooth="yes"/>
      <point x="132" y="1367"/>
      <point x="211" y="1514"/>
      <point x="710" y="1514" type="curve" smooth="yes"/>
      <point x="1183" y="1514"/>
      <point x="1288" y="1378"/>
      <point x="1288" y="876" type="curve" smooth="yes"/>
      <point x="1288" y="149"/>
      <point x="1297" y="-24"/>
    </contour>
    <contour>
      <point x="710" y="1360" type="curve" smooth="yes"/>
      <point x="376" y="1360"/>
      <point x="347" y="1313"/>
      <point x="339" y="1097" type="curve"/>
      <point x="337" y="974"/>
      <point x="336" y="850"/>
      <point x="336" y="725" type="curve" smooth="yes"/>
      <point x="336" y="470"/>
      <point x="334" y="197"/>
      <point x="442" y="159" type="curve"/>
      <point x="485" y="134"/>
      <point x="594" y="130"/>
      <point x="710" y="130" type="curve" smooth="yes"/>
      <point x="826" y="130"/>
      <point x="935" y="134"/>
      <point x="978" y="159" type="curve"/>
      <point x="1082" y="196"/>
      <point x="1084" y="451"/>
      <point x="1084" y="697" type="curve" smooth="yes"/>
      <point x="1084" y="832"/>
      <point x="1083" y="965"/>
      <point x="1081" y="1097" type="curve"/>
      <point x="1073" y="1313"/>
      <point x="1044" y="1360"/>
    </contour>
    <contour>
      <point x="710" y="1490" type="move" name="top"/>
    </contour>
  </outline>
</glyph>
<glyph name="g" format="1">
  <advance width="1168"/>
  <unicode hex="0067"/>
  <outline>
    <contour>
      <point x="1018" y="1097" type="line"/>
      <point x="1018" y="139" type="line" smooth="yes"/>
      <point x="1018" y="-235"/>
      <point x="954" y="-357"/>
      <point x="583" y="-357" type="curve" smooth="yes"/>
      <point x="454" y="-357"/>
      <point x="350" y="-344"/>
      <point x="271" y="-316" type="curve"/>
      <point x="284" y="-180" type="line"/>
      <point x="356" y="-200"/>
      <point x="444" y="-211"/>
      <point x="550" y="-211" type="curve" smooth="yes"/>
      <point x="798" y="-211"/>
      <point x="821" y="-148"/>
      <point x="821" y="-48" type="curve" smooth="yes"/>
      <point x="820" y="131" type="line"/>
      <point x="784" y="38"/>
      <point x="702" y="-3"/>
      <point x="541" y="-3" type="curve" smooth="yes"/>
      <point x="138" y="-3"/>
      <point x="124" y="174"/>
      <point x="124" y="524" type="curve" smooth="yes"/>
      <point x="124" y="976"/>
      <point x="139" y="1125"/>
      <point x="495" y="1125" type="curve" smooth="yes"/>
      <point x="666" y="1125"/>
      <point x="771" y="1082"/>
      <point x="820" y="975" type="curve"/>
      <point x="839" y="1097" type="line"/>
    </contour>
    <contour>
      <point x="821" y="223" type="curve"/>
      <point x="821" y="833" type="line" smooth="yes"/>
      <point x="821" y="942"/>
      <point x="763" y="990"/>
      <point x="567" y="990" type="curve" smooth="yes"/>
      <point x="471" y="990"/>
      <point x="408" y="981"/>
      <point x="375" y="965" type="curve" smooth="yes"/>
      <point x="327" y="942"/>
      <point x="319" y="845"/>
      <point x="319" y="746" type="curve" smooth="yes"/>
      <point x="319" y="567"/>
      <point x="321" y="403"/>
      <point x="327" y="242" type="curve"/>
      <point x="333" y="152"/>
      <point x="374" y="134"/>
      <point x="588" y="134" type="curve" smooth="yes"/>
      <point x="693" y="134"/>
      <point x="813" y="151"/>
    </contour>
    <contour>
      <point x="584" y="1097" type="move" name="top"/>
    </contour>
  </outline>
</glyph>
<glyph name="i" format="1">
  <advance width="523"/>
  <unicode hex="0069"/>
  <outline>
    <contour>
      <point x="360" y="0" type="line"/>
      <point x="163" y="0" type="line"/>
      <point x="163" y="1097" type="line"/>
      <point x="360" y="1097" type="line"/>
    </contour>
    <contour>
      <point x="360" y="1521" type="line"/>
      <point x="360" y="1348" type="line"/>
      <point x="163" y="1348" type="line"/>
      <point x="163" y="1521" type="line"/>
    </contour>
  </outline>
</glyph>
<glyph name="bar" format="1">
  <advance width="510"/>
  <unicode hex="007C"/>
  <outline>
    <contour>
      <point x="169" y="1716" type="line"/>
      <point x="344" y="1716" type="line"/>
      <point x="344" y="-98" type="line"/>
      <point x="169" y="-98" type="line"/>
    </contour>
  </outline>
</glyph>
<glyph name="asciitilde" format="1">
  <advance width="1015"/>
  <unicode hex="007E"/>
  <outline>
    <contour>
      <point x="932" y="1047" type="line"/>
      <point x="893" y="884"/>
      <point x="808" y="832"/>
      <point x="705" y="832" type="curve" smooth="yes"/>
      <point x="547" y="832"/>
      <point x="415" y="966"/>
      <point x="280" y="966" type="curve" smooth="yes"/>
      <point x="232" y="966"/>
      <point x="184" y="949"/>
      <point x="134" y="903" type="curve"/>
      <point x="105" y="945" type="line"/>
      <point x="143" y="1087"/>
      <point x="221" y="1132"/>
      <point x="314" y="1132" type="curve" smooth="yes"/>
      <point x="513" y="1132"/>
      <point x="594" y="1014"/>
      <point x="713" y="1014" type="curve" smooth="yes"/>
      <point x="764" y="1014"/>
      <point x="821" y="1035"/>
      <point x="898" y="1097" type="curve"/>
    </contour>
  </outline>
</glyph>
<glyph name="dieresis" format="1">
  <advance width="982"/>
  <unicode hex="00A8"/>
  <outline>
    <contour>
      <point x="609" y="244" type="curve" smooth="yes"/>
      <point x="609" y="329"/>
      <point x="665" y="371"/>
      <point x="740" y="371" type="curve" smooth="yes"/>
      <point x="816" y="371"/>
      <point x="869" y="330"/>
      <point x="869" y="244" type="curve" smooth="yes"/>
      <point x="869" y="158"/>
      <point x="816" y="117"/>
      <point x="740" y="117" type="curve" smooth="yes"/>
      <point x="664" y="117"/>
      <point x="609" y="158"/>
    </contour>
    <contour>
      <point x="117" y="244" type="curve" smooth="yes"/>
      <point x="117" y="329"/>
      <point x="173" y="371"/>
      <point x="248" y="371" type="curve" smooth="yes"/>
      <point x="324" y="371"/>
      <point x="377" y="330"/>
      <point x="377" y="244" type="curve" smooth="yes"/>
      <point x="377" y="158"/>
      <point x="324" y="117"/>
      <point x="248" y="117" type="curve" smooth="yes"/>
      <point x="172" y="117"/>
      <point x="117" y="158"/>
    </contour>
    <contour>
      <point x="493" y="1097" type="move" name="_top"/>
    </contour>
  </outline>
</glyph>
<glyph name="onehalf" format="1">
  <advance width="828"/>
  <unicode hex="00BD"/>
  <outline>
    <contour>
      <point x="161" y="0" type="line"/>
      <point x="161" y="75" type="line" smooth="yes"/>
      <point x="161" y="314"/>
      <point x="465" y="229"/>
      <point x="465" y="494" type="curve" smooth="yes"/>
      <point x="465" y="572"/>
      <point x="456" y="573"/>
      <point x="343" y="573" type="curve" smooth="yes"/>
      <point x="280" y="573"/>
      <point x="248" y="572"/>
      <point x="248" y="498" type="curve"/>
      <point x="251" y="463" type="line"/>
      <point x="168" y="470" type="line"/>
      <point x="164" y="495"/>
      <point x="162" y="512"/>
      <point x="162" y="522" type="curve" smooth="yes"/>
      <point x="162" y="621"/>
      <point x="246" y="646"/>
      <point x="357" y="646" type="curve" smooth="yes"/>
      <point x="496" y="646"/>
      <point x="557" y="624"/>
      <point x="557" y="484" type="curve" smooth="yes"/>
      <point x="557" y="223"/>
      <point x="378" y="270"/>
      <point x="275" y="138" type="curve" smooth="yes"/>
      <point x="261" y="120"/>
      <point x="252" y="99"/>
      <point x="252" y="72" type="curve"/>
      <point x="547" y="72" type="line"/>
      <point x="547" y="0" type="line"/>
    </contour>
    <contour>
      <point x="301" y="898" type="line"/>
      <point x="301" y="1378" type="line"/>
      <point x="232" y="1378" type="line"/>
      <point x="232" y="1431" type="line"/>
      <point x="284" y="1431"/>
      <point x="314" y="1458"/>
      <point x="314" y="1499" type="curve"/>
      <point x="392" y="1499" type="line"/>
      <point x="392" y="898" type="line"/>
    </contour>
    <contour>
      <point x="49" y="805" type="line"/>
      <point x="669" y="805" type="line"/>
      <point x="669" y="734" type="line"/>
      <point x="49" y="734" type="line"/>
    </contour>
  </outline>
</glyph>
<glyph name="multiply" format="1">
  <advance width="860"/>
  <unicode hex="00D7"/>
  <outline>
    <contour>
      <point x="292" y="670" type="line"/>
      <point x="284" y="678"/>
      <point x="277" y="687"/>
      <point x="270" y="695" type="curve" smooth="yes"/>
      <point x="68" y="920" type="line"/>
      <point x="95" y="949"/>
      <point x="121" y="979"/>
      <point x="147" y="1008" type="curve" smooth="yes"/>
      <point x="187" y="1052" type="line"/>
      <point x="413" y="802" type="line"/>
      <point x="640" y="1052" type="line"/>
      <point x="758" y="920" type="line"/>
      <point x="535" y="670" type="line"/>
      <point x="758" y="420" type="line"/>
      <point x="640" y="288" type="line"/>
      <point x="413" y="538" type="line"/>
      <point x="187" y="288" type="line"/>
      <point x="160" y="317"/>
      <point x="134" y="347"/>
      <point x="108" y="376" type="curve" smooth="yes"/>
      <point x="68" y="420" type="line"/>
    </contour>
  </outline>
</glyph>
<glyph name="ae" format="1">
  <advance width="1714"/>
  <unicode hex="00E6"/>
  <outline>
    <contour>
      <point x="952" y="399" type="line" smooth="yes"/>
      <point x="952" y="197.357"/>
      <point x="959.5" y="122"/>
      <point x="1221" y="122" type="curve" smooth="yes"/>
      <point x="1444.36" y="122"/>
      <point x="1406.98" y="206"/>
      <point x="1421" y="334" type="curve"/>
      <point x="1574" y="306" type="line"/>
      <point x="1565.36" y="34"/>
      <point x="1500.08" y="-15"/>
      <point x="1238" y="-15" type="curve" smooth="yes"/>
      <point x="1005.67" y="-15"/>
      <point x="887.548" y="33.2686"/>
      <point x="828" y="139" type="curve"/>
      <point x="766.688" y="7.98535"/>
      <point x="632.005" y="-15"/>
      <point x="434" y="-15" type="curve" smooth="yes"/>
      <point x="168" y="-15"/>
      <point x="101" y="86"/>
      <point x="101" y="354" type="curve" smooth="yes"/>
      <point x="101" y="577"/>
      <point x="366.749" y="604"/>
      <point x="755" y="604" type="curve"/>
      <point x="755" y="901" type="line" smooth="yes"/>
      <point x="755" y="970"/>
      <point x="701.046" y="991"/>
      <point x="544" y="991" type="curve" smooth="yes"/>
      <point x="304" y="991"/>
      <point x="323" y="964"/>
      <point x="318" y="824" type="curve"/>
      <point x="165" y="830" type="line"/>
      <point x="163" y="846"/>
      <point x="163" y="862"/>
      <point x="163" y="877" type="curve" smooth="yes"/>
      <point x="163" y="1104"/>
      <point x="322" y="1128"/>
      <point x="557" y="1128" type="curve" smooth="yes"/>
      <point x="700.182" y="1128"/>
      <point x="795.637" y="1095.8"/>
      <point x="857" y="1013" type="curve"/>
      <point x="923" y="1100.4"/>
      <point x="1031" y="1128"/>
      <point x="1209" y="1128" type="curve" smooth="yes"/>
      <point x="1567.21" y="1128"/>
      <point x="1601" y="1030"/>
      <point x="1601" y="564" type="curve"/>
      <point x="1552" y="559"/>
      <point x="1501.09" y="550"/>
      <point x="1452" y="550" type="curve" smooth="yes"/>
      <point x="952" y="550" type="line"/>
    </contour>
    <contour>
      <point x="755" y="314" type="curve" smooth="yes"/>
      <point x="755" y="485" type="line"/>
      <point x="359.7" y="485"/>
      <point x="283" y="443"/>
      <point x="283" y="354" type="curve" smooth="yes"/>
      <point x="283" y="157"/>
      <point x="281" y="122"/>
      <point x="461" y="122" type="curve" smooth="yes"/>
      <point x="681.014" y="122"/>
      <point x="755" y="202.779"/>
    </contour>
    <contour>
      <point x="952" y="655" type="curve"/>
      <point x="1404" y="655" type="line"/>
      <point x="1403" y="735"/>
      <point x="1400" y="813"/>
      <point x="1394" y="889" type="curve" smooth="yes"/>
      <point x="1388.42" y="971"/>
      <point x="1346.57" y="991"/>
      <point x="1208" y="991" type="curve" smooth="yes"/>
      <point x="934.979" y="991"/>
      <point x="958.285" y="908.501"/>
    </contour>
    <contour>
      <point x="857" y="1097" type="move" name="top"/>
    </contour>
  </outline>
</glyph>
<glyph name="divide" format="1">
  <advance width="537"/>
  <unicode hex="00F7"/>
  <outline>
    <contour>
      <point x="273" y="925" type="curve" smooth="yes"/>
      <point x="191" y="925"/>
      <point x="133" y="984"/>
      <point x="133" y="1079" type="curve" smooth="yes"/>
      <point x="133" y="1175"/>
      <point x="186" y="1233"/>
      <point x="287" y="1233" type="curve" smooth="yes"/>
      <point x="357" y="1233"/>
      <point x="413" y="1157"/>
      <point x="413" y="1079" type="curve" smooth="yes"/>
      <point x="413" y="991"/>
      <point x="361" y="925"/>
    </contour>
    <contour>
      <point x="375" y="178" type="curve" smooth="yes"/>
      <point x="350" y="149"/>
      <point x="316" y="134"/>
      <point x="273" y="134" type="curve" smooth="yes"/>
      <point x="192" y="134"/>
      <point x="133" y="193"/>
      <point x="133" y="288" type="curve" smooth="yes"/>
      <point x="133" y="383"/>
      <point x="186" y="442"/>
      <point x="287" y="442" type="curve" smooth="yes"/>
      <point x="357" y="442"/>
      <point x="413" y="366"/>
      <point x="413" y="288" type="curve" smooth="yes"/>
      <point x="413" y="245"/>
      <point x="400" y="208"/>
    </contour>
  </outline>
</glyph>
<glyph name="ring" format="1">
  <advance width="745"/>
  <unicode hex="02DA"/>
  <outline>
    <contour>
      <point x="358" y="538" type="curve" smooth="yes"/>
      <point x="299" y="538"/>
      <point x="257" y="468"/>
      <point x="257" y="402" type="curve" smooth="yes"/>
      <point x="257" y="311"/>
      <point x="300" y="265"/>
      <point x="385" y="265" type="curve" smooth="yes"/>
      <point x="445" y="265"/>
      <point x="487" y="335"/>
      <point x="487" y="400" type="curve" smooth="yes"/>
      <point x="487" y="485"/>
      <point x="442" y="538"/>
    </contour>
    <contour>
      <point x="372" y="656" type="curve" smooth="yes"/>
      <point x="520" y="656"/>
      <point x="630" y="551"/>
      <point x="630" y="402" type="curve" smooth="yes"/>
      <point x="630" y="251"/>
      <point x="523" y="148"/>
      <point x="374" y="148" type="curve" smooth="yes"/>
      <point x="236" y="148"/>
      <point x="117" y="242"/>
      <point x="117" y="402" type="curve" smooth="yes"/>
      <point x="117" y="554"/>
      <point x="223" y="656"/>
    </contour>
    <contour>
      <point x="373.5" y="1097" type="move" name="_top"/>
    </contour>
  </outline>
</glyph>
<glyph name="quotedblleft" format="1">
  <advance width="1005"/>
  <unicode hex="201C"/>
  <outline>
    <contour>
      <point x="896" y="1484" type="line"/>
      <point x="813" y="1484"/>
      <point x="760" y="1389"/>
      <point x="760" y="1285" type="curve"/>
      <point x="847" y="1285"/>
      <point x="891" y="1235"/>
      <point x="891" y="1135" type="curve" smooth="yes"/>
      <point x="891" y="1082"/>
      <point x="845" y="1000"/>
      <point x="733" y="1000" type="curve" smooth="yes"/>
      <point x="648" y="1000"/>
      <point x="596" y="1089"/>
      <point x="596" y="1202" type="curve" smooth="yes"/>
      <point x="596" y="1381"/>
      <point x="730" y="1552"/>
      <point x="896" y="1552" type="curve"/>
    </contour>
    <contour>
      <point x="418" y="1484" type="line"/>
      <point x="331" y="1484"/>
      <point x="279" y="1389"/>
      <point x="279" y="1285" type="curve"/>
      <point x="368" y="1285"/>
      <point x="413" y="1235"/>
      <point x="413" y="1135" type="curve" smooth="yes"/>
      <point x="413" y="1077"/>
      <point x="357" y="1000"/>
      <point x="271" y="1000" type="curve" smooth="yes"/>
      <point x="169" y="1000"/>
      <point x="118" y="1067"/>
      <point x="118" y="1202" type="curve" smooth="yes"/>
      <point x="118" y="1380"/>
      <point x="246" y="1552"/>
      <point x="418" y="1552" type="curve"/>
    </contour>
  </outline>
</glyph>
<glyph name="dagger" format="1">
  <advance width="830"/>
  <unicode hex="2020"/>
  <outline>
    <contour>
      <point x="364" y="23" type="curve" smooth="yes"/>
      <point x="333" y="43"/>
      <point x="317" y="85"/>
      <point x="317" y="146" type="curve"/>
      <point x="333" y="348"/>
      <point x="350" y="546"/>
      <point x="368" y="743" type="curve" smooth="yes"/>
      <point x="386" y="939" type="line" smooth="yes"/>
      <point x="385" y="939"/>
      <point x="209" y="865"/>
      <point x="135" y="865" type="curve" smooth="yes"/>
      <point x="58" y="865"/>
      <point x="20" y="901"/>
      <point x="20" y="972" type="curve" smooth="yes"/>
      <point x="20" y="1035"/>
      <point x="54" y="1084"/>
      <point x="110" y="1084" type="curve" smooth="yes"/>
      <point x="208" y="1084"/>
      <point x="257" y="1059"/>
      <point x="331" y="1030" type="curve" smooth="yes"/>
      <point x="390" y="1007" type="line"/>
      <point x="345" y="1208"/>
      <point x="323" y="1338"/>
      <point x="323" y="1398" type="curve" smooth="yes"/>
      <point x="323" y="1514"/>
      <point x="374" y="1552"/>
      <point x="423" y="1552" type="curve" smooth="yes"/>
      <point x="486" y="1552"/>
      <point x="523" y="1512"/>
      <point x="523" y="1390" type="curve" smooth="yes"/>
      <point x="523" y="1346"/>
      <point x="500" y="1218"/>
      <point x="454" y="1007" type="curve"/>
      <point x="585" y="1058"/>
      <point x="675" y="1084"/>
      <point x="725" y="1084" type="curve" smooth="yes"/>
      <point x="793" y="1084"/>
      <point x="826" y="1041"/>
      <point x="826" y="959" type="curve" smooth="yes"/>
      <point x="826" y="898"/>
      <point x="780" y="865"/>
      <point x="710" y="865" type="curve" smooth="yes"/>
      <point x="669" y="865"/>
      <point x="585" y="890"/>
      <point x="459" y="939" type="curve"/>
      <point x="487" y="629" type="line" smooth="yes"/>
      <point x="504" y="444"/>
      <point x="518" y="283"/>
      <point x="529" y="146" type="curve"/>
      <point x="529" y="53"/>
      <point x="494" y="8"/>
      <point x="423" y="8" type="curve" smooth="yes"/>
      <point x="399" y="8"/>
      <point x="380" y="13"/>
    </contour>
  </outline>
</glyph>
<glyph name="daggerdbl" format="1">
  <advance width="1037"/>
  <unicode hex="2021"/>
  <outline>
    <contour>
      <point x="934" y="397" type="curve" smooth="yes"/>
      <point x="918" y="387"/>
      <point x="900" y="381"/>
      <point x="880" y="381" type="curve" smooth="yes"/>
      <point x="743" y="381"/>
      <point x="633" y="451"/>
      <point x="589" y="467" type="curve"/>
      <point x="603" y="420" type="line" smooth="yes"/>
      <point x="627" y="339"/>
      <point x="674" y="192"/>
      <point x="673" y="114" type="curve"/>
      <point x="673" y="19"/>
      <point x="615" y="-38"/>
      <point x="526" y="-38" type="curve" smooth="yes"/>
      <point x="437" y="-38"/>
      <point x="378" y="19"/>
      <point x="378" y="112" type="curve" smooth="yes"/>
      <point x="378" y="193"/>
      <point x="413" y="265"/>
      <point x="435" y="374" type="curve"/>
      <point x="462" y="467" type="line"/>
      <point x="330" y="410"/>
      <point x="241" y="381"/>
      <point x="195" y="381" type="curve" smooth="yes"/>
      <point x="112" y="381"/>
      <point x="65" y="423"/>
      <point x="65" y="500" type="curve" smooth="yes"/>
      <point x="65" y="579"/>
      <point x="109" y="619"/>
      <point x="196" y="619" type="curve" smooth="yes"/>
      <point x="243" y="619"/>
      <point x="332" y="591"/>
      <point x="462" y="535" type="curve"/>
      <point x="462" y="979" type="line"/>
      <point x="329" y="923"/>
      <point x="239" y="895"/>
      <point x="194" y="895" type="curve" smooth="yes"/>
      <point x="108" y="895"/>
      <point x="65" y="934"/>
      <point x="65" y="1013" type="curve" smooth="yes"/>
      <point x="65" y="1090"/>
      <point x="111" y="1134"/>
      <point x="194" y="1134" type="curve" smooth="yes"/>
      <point x="239" y="1134"/>
      <point x="329" y="1105"/>
      <point x="462" y="1047" type="curve"/>
      <point x="449" y="1093"/>
      <point x="378" y="1307"/>
      <point x="378" y="1400" type="curve" smooth="yes"/>
      <point x="378" y="1495"/>
      <point x="436" y="1552"/>
      <point x="526" y="1552" type="curve" smooth="yes"/>
      <point x="614" y="1552"/>
      <point x="673" y="1493"/>
      <point x="673" y="1402" type="curve" smooth="yes"/>
      <point x="673" y="1324"/>
      <point x="627" y="1193"/>
      <point x="589" y="1047" type="curve"/>
      <point x="732" y="1105"/>
      <point x="824" y="1134"/>
      <point x="867" y="1134" type="curve" smooth="yes"/>
      <point x="946" y="1134"/>
      <point x="985" y="1089"/>
      <point x="985" y="1000" type="curve" smooth="yes"/>
      <point x="985" y="933"/>
      <point x="933" y="895"/>
      <point x="855" y="895" type="curve" smooth="yes"/>
      <point x="806" y="895"/>
      <point x="718" y="923"/>
      <point x="589" y="979" type="curve"/>
      <point x="589" y="535" type="line"/>
      <point x="723" y="591"/>
      <point x="813" y="619"/>
      <point x="858" y="619" type="curve" smooth="yes"/>
      <point x="939" y="619"/>
      <point x="985" y="576"/>
      <point x="985" y="500" type="curve" smooth="yes"/>
      <point x="985" y="457"/>
      <point x="965" y="418"/>
    </contour>
  </outline>
</glyph>
<glyph name="guilsinglleft" format="1">
  <advance width="725"/>
  <unicode hex="2039"/>
  <outline>
    <contour>
      <point x="80" y="742" type="line"/>
      <point x="555" y="1166" type="line"/>
      <point x="650" y="1053" type="line"/>
      <point x="229" y="693" type="line"/>
      <point x="650" y="333" type="line"/>
      <point x="555" y="220" type="line"/>
      <point x="80" y="644" type="line"/>
    </contour>
  </outline>
</glyph>
<glyph name="Euro" format="1">
  <advance width="1439"/>
  <unicode hex="20AC"/>
  <outline>
    <contour>
      <point x="58" y="823" type="line"/>
      <point x="58" y="927" type="line"/>
      <point x="972" y="928" type="line"/>
      <point x="972" y="823" type="line"/>
    </contour>
    <contour>
      <point x="58" y="650" type="line"/>
      <point x="972" y="650" type="line"/>
      <point x="972" y="549" type="line"/>
      <point x="58" y="549" type="line"/>
    </contour>
    <component base="C"/>
  </outline>
</glyph>
